<svg width="34" height="34" viewBox="0 0 34 34" fill="none" xmlns="http://www.w3.org/2000/svg">
<g clip-path="url(#clip0)">
<path d="M17 26.775C22.3986 26.775 26.775 22.3986 26.775 17C26.775 11.6014 22.3986 7.22498 17 7.22498C11.6014 7.22498 7.22498 11.6014 7.22498 17C7.22498 22.3986 11.6014 26.775 17 26.775Z" fill="#FFE8A7"/>
<path d="M21.6324 8.37256C22.0575 9.73254 22.3549 11.1775 22.3974 12.6651C22.6524 18.5726 18.6574 23.8001 13.4724 26.0951C14.5774 26.5202 15.7674 26.7752 16.9999 26.7752C22.3974 26.7752 26.7749 22.3977 26.7749 17.0002C26.7749 13.26 24.6924 10.03 21.6324 8.37256Z" fill="#FCDC6B"/>
<path d="M16.9999 0C16.1924 0 15.5549 0.63748 15.5549 1.445V3.82502C15.5549 4.63254 16.1924 5.27002 16.9999 5.27002C17.8075 5.27002 18.4449 4.63254 18.4449 3.82502V1.445C18.4449 0.63748 17.8075 0 16.9999 0Z" fill="#FCDC6B"/>
<path d="M16.9999 28.73C16.1924 28.73 15.5549 29.3675 15.5549 30.175V32.555C15.5549 33.3625 16.1924 34 16.9999 34C17.8075 34 18.4449 33.3625 18.4449 32.555V30.175C18.4449 29.3675 17.8075 28.73 16.9999 28.73Z" fill="#FCDC6B"/>
<path d="M34.0001 16.9999C34.0001 16.1924 33.3626 15.5549 32.5551 15.5549H30.1751C29.3676 15.5549 28.7301 16.1924 28.7301 16.9999C28.7301 17.8075 29.3676 18.4449 30.1751 18.4449H32.5551C33.3626 18.4449 34.0001 17.8075 34.0001 16.9999Z" fill="#FCDC6B"/>
<path d="M5.27002 16.9999C5.27002 16.1924 4.63254 15.5549 3.82502 15.5549H1.445C0.63748 15.5549 0 16.1924 0 16.9999C0 17.8075 0.63748 18.4449 1.445 18.4449H3.82502C4.63247 18.4449 5.27002 17.8075 5.27002 16.9999Z" fill="#FCDC6B"/>
<path d="M29.0274 4.9725C28.4749 4.41997 27.5399 4.41997 26.9874 4.9725L25.2874 6.6725C24.7349 7.22503 24.7349 8.15997 25.2874 8.7125C25.8399 9.26503 26.7749 9.26503 27.3274 8.7125L29.0274 7.01251C29.5799 6.46005 29.5799 5.52503 29.0274 4.9725Z" fill="#FCDC6B"/>
<path d="M8.71238 25.2876C8.15985 24.735 7.2249 24.735 6.67237 25.2876L4.97238 26.9876C4.41985 27.5401 4.41985 28.475 4.97238 29.0276C5.52491 29.5801 6.45986 29.5801 7.01238 29.0276L8.71238 27.3276C9.26491 26.775 9.26491 25.8826 8.71238 25.2876Z" fill="#FCDC6B"/>
<path d="M29.0274 29.0276C29.5799 28.475 29.5799 27.5401 29.0274 26.9876L27.3274 25.2876C26.7749 24.735 25.8399 24.735 25.2874 25.2876C24.7349 25.8401 24.7349 26.775 25.2874 27.3276L26.9874 29.0276C27.5399 29.5801 28.4749 29.5801 29.0274 29.0276Z" fill="#FCDC6B"/>
<path d="M8.71238 8.7125C9.26491 8.15997 9.26491 7.22503 8.71238 6.6725L7.01238 4.9725C6.45986 4.41997 5.52491 4.41997 4.97238 4.9725C4.41985 5.52503 4.41985 6.45998 4.97238 7.01251L6.67237 8.7125C7.2249 9.26503 8.11737 9.26503 8.71238 8.7125Z" fill="#FCDC6B"/>
</g>
<defs>
<clipPath id="clip0">
<rect width="34" height="34" fill="white"/>
</clipPath>
</defs>
</svg>
