<svg width="89" height="107" viewBox="0 0 89 107" fill="none" xmlns="http://www.w3.org/2000/svg">
<path d="M17.9455 102.604L17.9454 102.604L9.21993 59H80.7801L72.0546 102.604L72.0545 102.604C71.6449 104.657 70.0452 106 68.3083 106H21.6917C19.9549 106 18.3551 104.657 17.9455 102.604Z" stroke="#56CC9A" stroke-width="2"/>
<path d="M57 17.2656V17.2092C57 16.4675 56.2646 15.9887 55.652 16.3337C53.7223 17.4199 51.8335 18.6761 50.0683 20.1262C48.5892 21.3412 47.3318 22.5226 46.3084 23.5238L46.3022 21.4117C46.3022 21.3414 46.3407 14.3428 49.6696 10.7751C50.0484 10.3689 50.0484 9.71061 49.6696 9.30444C49.2906 8.89852 48.6764 8.89852 48.2974 9.30444C45.5378 12.2622 44.7132 16.9519 44.4667 19.5454C43.7519 18.6933 42.9373 17.7192 42.1414 16.9054C39.077 13.7716 35.6627 11.3011 32.3554 9.38598C31.7432 9.03145 31 9.51089 31 10.2566C31 10.6043 31.1711 10.925 31.4491 11.1041C34.4145 13.0159 37.5991 15.4032 40.7754 18.3823C42.1901 19.7092 43.6025 21.621 44.3651 22.5695L44.3748 25.778C44.3561 25.8965 44.3561 26.018 44.3759 26.1364L44.4567 47.9636C44.4584 48.5367 44.8924 49 45.4268 49C45.4278 49 45.429 49 45.43 49C45.9658 48.9981 46.3988 48.5312 46.3971 47.9567L46.317 26.3714C47.4339 25.2065 49.101 23.5186 51.2598 21.7676C52.941 20.404 54.717 19.1989 56.5198 18.1322C56.815 17.9576 57 17.6269 57 17.2656Z" fill="#56CC9A"/>
<path d="M12.6636 1.7143C18.047 6.045 22.6601 11.7728 28.3444 15.5794C32.1486 18.1268 37.0626 18.9626 41.3604 17.3215C43.1919 11.8632 39.8725 6.21052 35.5515 3.35308C29.0792 -0.92691 19.7589 -0.687975 12.6636 1.7143Z" fill="#56CC9A"/>
<path d="M82.3132 8.88048C76.4037 12.5465 71.1087 17.716 64.9568 20.8166C60.8397 22.8915 55.8029 23.1035 51.6694 20.9038C50.4536 15.1813 54.4392 9.92199 59.1116 7.60147C66.11 4.12535 75.4543 5.55752 82.3132 8.88048Z" fill="#56CC9A"/>
<path d="M35.5515 3.35308C29.0792 -0.92691 19.7589 -0.687975 12.6636 1.7143C23.7723 4.01988 33.5251 9.11839 41.3604 17.3213C43.1919 11.863 39.8725 6.21052 35.5515 3.35308Z" fill="#56CC9A"/>
<path d="M51.7699 20.9545C55.8844 23.098 60.8727 22.8743 64.9568 20.816C71.1086 17.7154 76.4036 12.5459 82.3131 8.87988C70.8963 9.77628 60.5797 13.7293 51.7699 20.9545Z" fill="#56CC9A"/>
<path d="M49.4081 33H83.9286C86.0979 33 87.8507 34.7295 88 37.1824V54.8467C88 57.2611 86.2757 59 84.092 59H81.8017H7.3621H4.90796C2.72455 59 1 57.2613 1 54.8467V37.1533C1 34.7389 2.72431 33 4.90796 33H39.5919H49.4081Z" fill="white" stroke="#56CC9A" stroke-width="2"/>
</svg>
